<?xml version="1.0" encoding="utf-8"?>
<!-- Generator: Adobe Illustrator 25.0.0, SVG Export Plug-In . SVG Version: 6.00 Build 0)  -->
<svg version="1.1" id="레이어_1" xmlns="http://www.w3.org/2000/svg" xmlns:xlink="http://www.w3.org/1999/xlink" x="0px"
	 y="0px" viewBox="0 0 36 36" style="enable-background:new 0 0 36 36;" xml:space="preserve">

<path class="st0" d="M18,36C9.2,36,2,28.6,2,19.6C2,12.8,6.1,6.7,12.3,4.2c0.3-0.1,0.6,0,0.7,0.3l0.3,0.9c0.1,0.3,0,0.5-0.3,0.6
	C7.6,8.3,4,13.6,4,19.6c0,8,6.3,14.4,14,14.4c7.7,0,14-6.5,14-14.4c0-6-3.6-11.3-8.9-13.4c-0.3-0.1-0.4-0.4-0.3-0.6l0.3-0.9
	c0.1-0.3,0.4-0.4,0.7-0.3C29.9,6.7,34,12.8,34,19.6C34,28.6,26.8,36,18,36z"/>
<path class="st0" d="M18.5,14h-1c-0.3,0-0.5-0.2-0.5-0.5v-13C17,0.2,17.2,0,17.5,0h1C18.8,0,19,0.2,19,0.5v13
	C19,13.8,18.8,14,18.5,14z"/>
</svg>
